<svg xmlns="http://www.w3.org/2000/svg" viewBox="0 0 24 22">
    <path d="M16.6394 6.3886L18.0619 7.7186L13.2411 12.2258L9.991 9.1871C9.6058 8.8269 8.9834 8.8269 8.5981 9.1871L2.671 14.738C2.2857 15.0982 2.2857 15.6801 2.671 16.0403C3.0562 16.4005 3.6786 16.4005 4.0638 16.0403L9.2896 11.1452L12.5397 14.1839C12.925 14.5441 13.5473 14.5441 13.9326 14.1839L19.4548 9.0301L20.8773 10.3601C21.1835 10.6464 21.717 10.4432 21.717 10.0368V6.0653C21.7269 5.8067 21.5095 5.6035 21.2329 5.6035H16.995C16.5504 5.6035 16.3331 6.1022 16.6394 6.3886Z"
          fill="currentColor"/>
</svg>
